Coordinates
version=1
nRows=10
nColumns=46
inDegrees=yes

Units are S.I. units (second, meters, Newtons, ...)
Angles are in degrees.

endheader
time	pelvis_tilt	pelvis_list	pelvis_rotation	pelvis_tx	pelvis_ty	pelvis_tz	bb_angle	bb_tx	bb_ty	bb_tz	hip_flexion_r	hip_adduction_r	hip_rotation_r	knee_angle_r	knee_angle_r_beta	ankle_angle_r	subtalar_angle_r	mtp_angle_r	crank_angle_r	hip_flexion_l	hip_adduction_l	hip_rotation_l	knee_angle_l	knee_angle_l_beta	ankle_angle_l	subtalar_angle_l	mtp_angle_l	crank_angle_l	lumbar_extension	lumbar_bending	lumbar_rotation	arm_flex_r	arm_add_r	arm_rot_r	elbow_flex_r	pro_sup_r	wrist_flex_r	wrist_dev_r	arm_flex_l	arm_add_l	arm_rot_l	elbow_flex_l	pro_sup_l	wrist_flex_l	wrist_dev_l
      2.50000000	    -23.53288728	      6.45527031	     -2.55866701	      0.24881824	      1.04444699	     -0.31515093	      0.00000000	      0.50000000	      0.00000000	      0.25000000	     58.56210423	     -7.87118258	      2.49364659	     43.37499528	      0.75703648	      2.75391414	     -4.05543741	      0.00000000	      0.00000000	     77.40866036	     -5.59352482	     -0.33393014	    111.67962686	      1.94917720	      5.22452628	     -3.75737478	      0.00000000	      0.00000000	    -60.11891119	      0.62791129	      1.25501933	     76.46074783	    -15.28738799	     23.69501299	     87.55397722	     47.04594412	      0.00000000	      0.00000000	     67.36534915	    -19.10527168	     15.47240686	     83.40675983	     45.96261262	      0.00000000	      0.00000000
      2.50500000	    -23.42948527	      6.49441810	     -2.45643557	      0.24796022	      1.04456555	     -0.31545915	      0.00000000	      0.50000000	      0.00000000	      0.25000000	     58.14478305	     -8.06389128	      2.36054327	     42.89553819	      0.74866838	      2.25551798	     -3.88329313	      0.00000000	      0.00000000	     77.73156765	     -5.49437609	     -0.31816986	    112.06087081	      1.95583116	      5.48684770	     -3.74529986	      0.00000000	      0.00000000	    -60.10392096	      0.65203974	      1.15645319	     76.51823310	    -15.15931080	     23.45886700	     87.26010609	     46.98369865	      0.00000000	      0.00000000	     67.57685343	    -19.01895272	     15.44138150	     83.15391700	     45.92899170	      0.00000000	      0.00000000
      2.51000000	    -23.38840379	      6.55469715	     -2.35096886	      0.24712616	      1.04461965	     -0.31572723	      0.00000000	      0.50000000	      0.00000000	      0.25000000	     57.82293105	     -8.25851687	      2.25226753	     42.48573927	      0.74151604	      1.82151493	     -3.71446554	      0.00000000	      0.00000000	     78.11257090	     -5.40392383	     -0.37642473	    112.41307864	      1.96197834	      5.74065407	     -3.82717431	      0.00000000	      0.00000000	    -60.06056677	      0.66769550	      1.07366935	     76.52846222	    -14.99263536	     23.15854784	     86.93913968	     46.91022103	      0.00000000	      0.00000000	     67.74287348	    -18.90675100	     15.35751723	     82.90381882	     45.89217799	      0.00000000	      0.00000000
      2.51500000	    -23.24696302	      6.31631439	     -2.33433640	      0.24632950	      1.04460516	     -0.31603064	      0.00000000	      0.50000000	      0.00000000	      0.25000000	     57.28782367	     -8.19170142	      1.89114393	     41.94957597	      0.73215822	      1.20868486	     -3.86135493	      0.00000000	      0.00000000	     78.47467859	     -5.53014290	     -0.05912291	    112.92590050	      1.97092877	      6.14057083	     -3.40571855	      0.00000000	      0.00000000	    -59.98179709	      0.80046852	      1.35579570	     76.73587259	    -15.23715127	     23.53766394	     86.19000725	     46.85476797	      0.00000000	      0.00000000	     68.21576804	    -19.03746446	     16.56247948	     81.85580110	     45.85409310	      0.00000000	      0.00000000
      2.52000000	    -23.11967667	      6.44808685	     -2.13031377	      0.24533917	      1.04478634	     -0.31632632	      0.00000000	      0.50000000	      0.00000000	      0.25000000	     56.88856695	     -8.51268972	      1.82058454	     41.55845108	      0.72533180	      0.73207183	     -3.65351979	      0.00000000	      0.00000000	     78.77644523	     -5.28858421	     -0.12324263	    113.24741672	      1.97654029	      6.38442926	     -3.53310757	      0.00000000	      0.00000000	    -59.97935416	      0.77616547	      1.09732728	     76.67749979	    -15.11022575	     23.26523877	     85.90398996	     46.79162616	      0.00000000	      0.00000000	     68.50896853	    -18.88082891	     16.51487935	     81.59717952	     45.81674513	      0.00000000	      0.00000000
      2.52500000	    -23.09166659	      6.46825220	     -2.04919560	      0.24462213	      1.04483402	     -0.31662136	      0.00000000	      0.50000000	      0.00000000	      0.25000000	     56.54730076	     -8.66120929	      1.66063982	     41.10151784	      0.71735681	      0.25164559	     -3.48606764	      0.00000000	      0.00000000	     79.16356350	     -5.24200520	     -0.13492412	    113.61019967	      1.98287205	      6.73786837	     -3.59744090	      0.00000000	      0.00000000	    -59.86896051	      0.78318949	      1.03915158	     76.65652201	    -14.97112970	     23.06392498	     85.50149019	     46.72428318	      0.00000000	      0.00000000	     68.72170304	    -18.76938875	     16.56553493	     81.23967831	     45.77983057	      0.00000000	      0.00000000
      2.53000000	    -22.89501768	      6.46959225	     -1.85987146	      0.24363906	      1.04516351	     -0.31679174	      0.00000000	      0.50000000	      0.00000000	      0.25000000	     56.01535291	     -8.85783711	      1.48376496	     40.63495482	      0.70921375	     -0.32851300	     -3.50403894	      0.00000000	      0.00000000	     79.41673728	     -5.09016460	     -0.04838448	    113.94413897	      1.98870039	      7.05075111	     -3.63572427	      0.00000000	      0.00000000	    -59.95533604	      0.83648447	      0.93295752	     76.75892576	    -14.92115745	     22.94115230	     85.02238343	     46.64289211	      0.00000000	      0.00000000	     69.16749848	    -18.70981983	     16.90798141	     80.73656076	     45.73986300	      0.00000000	      0.00000000
      2.53500000	    -22.69043878	      6.45619015	     -1.74543790	      0.24279876	      1.04543148	     -0.31699174	      0.00000000	      0.50000000	      0.00000000	      0.25000000	     55.47831105	     -8.97401797	      1.35856693	     40.20051557	      0.70163136	     -0.86666396	     -3.68481484	      0.00000000	      0.00000000	     79.63218981	     -5.00728982	      0.03191330	    114.28860534	      1.99471246	      7.43831602	     -3.50051742	      0.00000000	      0.00000000	    -59.98693227	      0.88426030	      0.94132136	     76.91761178	    -14.96073780	     22.96637268	     84.25541083	     46.52894343	      0.00000000	      0.00000000	     69.63228231	    -18.73824600	     17.73586728	     79.79795840	     45.67815223	      0.00000000	      0.00000000
      2.54000000	    -22.71898804	      6.60498160	     -1.60207702	      0.24191492	      1.04524113	     -0.31723485	      0.00000000	      0.50000000	      0.00000000	      0.25000000	     55.31062163	     -9.22619062	      1.36365475	     39.95781681	      0.69739547	     -1.17440163	     -3.49045020	      0.00000000	      0.00000000	     80.10431883	     -4.85303739	     -0.07564014	    114.61637317	      2.00043309	      7.73236545	     -3.66590838	      0.00000000	      0.00000000	    -59.83182412	      0.80682054	      0.74874064	     76.83623291	    -14.79631264	     22.55195344	     83.97571978	     46.45481947	      0.00000000	      0.00000000	     69.70462368	    -18.53977191	     17.52309208	     79.64563174	     45.64721160	      0.00000000	      0.00000000
      2.54500000	    -22.46562045	      6.52135926	     -1.47894272	      0.24105245	      1.04562937	     -0.31735370	      0.00000000	      0.50000000	      0.00000000	      0.25000000	     54.67955308	     -9.29662423	      1.15496713	     39.45546415	      0.68862776	     -1.82014996	     -3.68356332	      0.00000000	      0.00000000	     80.28309981	     -4.82556280	      0.05253273	    114.94080754	      2.00609554	      8.06848527	     -3.16586915	      0.00000000	      0.00000000	    -59.89050402	      0.86692813	      0.75689540	     76.99223162	    -14.85711173	     22.66435905	     83.13527147	     46.35119039	      0.00000000	      0.00000000	     70.29375813	    -18.57999205	     18.46636503	     78.69545171	     45.59798344	      0.00000000	      0.00000000
